<?xml version="1.0" encoding="UTF-8" standalone="no"?>
<!-- Created with Inkscape (http://www.inkscape.org/) -->

<svg
   width="210mm"
   height="297mm"
   viewBox="0 0 210 297"
   version="1.1"
   id="svg5"
   inkscape:version="1.1.2 (b8e25be8, 2022-02-05)"
   sodipodi:docname="BF_Unrecognized_Component.svg"
   xmlns:inkscape="http://www.inkscape.org/namespaces/inkscape"
   xmlns:sodipodi="http://sodipodi.sourceforge.net/DTD/sodipodi-0.dtd"
   xmlns="http://www.w3.org/2000/svg"
   xmlns:svg="http://www.w3.org/2000/svg">
  <sodipodi:namedview
     id="namedview7"
     pagecolor="#ffffff"
     bordercolor="#666666"
     borderopacity="1.0"
     inkscape:pageshadow="2"
     inkscape:pageopacity="0.0"
     inkscape:pagecheckerboard="0"
     inkscape:document-units="mm"
     showgrid="true"
     inkscape:snap-global="true"
     inkscape:zoom="3.0024588"
     inkscape:cx="272.94296"
     inkscape:cy="168.02895"
     inkscape:window-width="2560"
     inkscape:window-height="1387"
     inkscape:window-x="1680"
     inkscape:window-y="25"
     inkscape:window-maximized="1"
     inkscape:current-layer="layer1"
     inkscape:snap-bbox="true"
     inkscape:snap-intersection-paths="true"
     inkscape:snap-grids="true">
    <inkscape:grid
       type="xygrid"
       id="grid868"
       spacingy="1" />
  </sodipodi:namedview>
  <defs
     id="defs2" />
  <g
     inkscape:label="Layer 1"
     inkscape:groupmode="layer"
     id="layer1">
    <path
       id="path903"
       style="fill:#000000;fill-opacity:1;stroke:none;stroke-width:0.264583px;stroke-linecap:butt;stroke-linejoin:miter;stroke-opacity:1"
       d="M 16,8 C 10.18558,8 5.9748186,14.037916 7.9999738,19.999785 l 7.3540722,21.650359 c 1.00149,2.948385 3.384836,4.952588 8.248592,5.148006 -4.09358,1.513544 -4.704689,5.123667 -3.33933,8.989632 L 27.06651,75.05017 c 1.101953,3.244041 4.429575,5.999636 8.000026,5.999636 l 59.933294,-0.05013 -8.950359,-26.9999 H 113.9997 c -2.58765,-5.961573 -5.65653,-12.759791 -8.00002,-17.999935 H 79.999712 L 77.333207,27.999814 H 114.58727 L 106.99961,8 H 65.999532 Z m 17.720365,19.999814 h 20.000331 l 2.558499,8.000029 H 36.278868 Z m 10.054167,26.162743 h 20.00033 l 2.5585,8.000029 H 46.333034 Z"
       sodipodi:nodetypes="scscccccccccccccscccccccccc" />
  </g>
</svg>
